<mxfile host="Electron" modified="2023-05-21T14:04:29.053Z" agent="Mozilla/5.0 (Windows NT 10.0; Win64; x64) AppleWebKit/537.36 (KHTML, like Gecko) draw.io/21.2.8 Chrome/112.0.5615.165 Electron/24.2.0 Safari/537.36" etag="z78Y7e-DmZizlcAjP63J" version="21.2.8" type="device">
  <diagram name="Page-1" id="_bxTskcx-uTH69s2eUzP">
    <mxGraphModel dx="1436" dy="1056" grid="0" gridSize="10" guides="1" tooltips="1" connect="1" arrows="1" fold="1" page="0" pageScale="1" pageWidth="850" pageHeight="1100" math="0" shadow="0">
      <root>
        <mxCell id="0" />
        <mxCell id="1" parent="0" />
        <mxCell id="8ipgU9KL6Nm_yaJBRG0r-20" value="" style="rounded=0;whiteSpace=wrap;html=1;fontSize=16;" parent="1" vertex="1">
          <mxGeometry x="-132" y="-316" width="616" height="324" as="geometry" />
        </mxCell>
        <mxCell id="8ipgU9KL6Nm_yaJBRG0r-8" style="edgeStyle=none;curved=1;rounded=0;orthogonalLoop=1;jettySize=auto;html=1;fontSize=12;startSize=8;endSize=8;" parent="1" source="xR_7PNV1ilyZsFhJpjoF-19" target="8ipgU9KL6Nm_yaJBRG0r-7" edge="1">
          <mxGeometry relative="1" as="geometry" />
        </mxCell>
        <mxCell id="xR_7PNV1ilyZsFhJpjoF-19" value="MCU" style="rounded=1;whiteSpace=wrap;html=1;fontSize=16;fillColor=#f5f5f5;fontColor=#333333;strokeColor=#666666;" parent="1" vertex="1">
          <mxGeometry x="116" y="-218.5" width="120" height="177" as="geometry" />
        </mxCell>
        <mxCell id="8ipgU9KL6Nm_yaJBRG0r-6" style="edgeStyle=none;curved=1;rounded=0;orthogonalLoop=1;jettySize=auto;html=1;fontSize=12;startSize=8;endSize=8;entryX=0;entryY=0.12;entryDx=0;entryDy=0;entryPerimeter=0;" parent="1" source="xR_7PNV1ilyZsFhJpjoF-20" target="xR_7PNV1ilyZsFhJpjoF-19" edge="1">
          <mxGeometry relative="1" as="geometry">
            <mxPoint x="114" y="-197" as="targetPoint" />
          </mxGeometry>
        </mxCell>
        <mxCell id="xR_7PNV1ilyZsFhJpjoF-20" value="&lt;font face=&quot;Calibri&quot;&gt;BTN&lt;/font&gt;" style="rounded=1;whiteSpace=wrap;html=1;fontSize=16;fillColor=#dae8fc;strokeColor=#6c8ebf;" parent="1" vertex="1">
          <mxGeometry x="-98" y="-218.5" width="117" height="42" as="geometry" />
        </mxCell>
        <mxCell id="xR_7PNV1ilyZsFhJpjoF-21" value="&lt;font face=&quot;Calibri&quot;&gt;DIO&lt;/font&gt;" style="text;html=1;strokeColor=none;fillColor=none;align=center;verticalAlign=middle;whiteSpace=wrap;rounded=0;fontSize=16;" parent="1" vertex="1">
          <mxGeometry x="49" y="-222" width="37" height="30" as="geometry" />
        </mxCell>
        <mxCell id="xR_7PNV1ilyZsFhJpjoF-25" value="&lt;font face=&quot;Calibri&quot; style=&quot;font-size: 18px;&quot;&gt;Block Diagram&lt;/font&gt;" style="text;html=1;strokeColor=none;fillColor=none;align=center;verticalAlign=middle;whiteSpace=wrap;rounded=0;fontSize=16;" parent="1" vertex="1">
          <mxGeometry x="16.5" y="-284" width="319" height="30" as="geometry" />
        </mxCell>
        <mxCell id="8ipgU9KL6Nm_yaJBRG0r-10" style="edgeStyle=none;curved=1;rounded=0;orthogonalLoop=1;jettySize=auto;html=1;entryX=0.004;entryY=0.879;entryDx=0;entryDy=0;entryPerimeter=0;fontSize=12;startSize=8;endSize=8;" parent="1" source="xR_7PNV1ilyZsFhJpjoF-26" target="xR_7PNV1ilyZsFhJpjoF-19" edge="1">
          <mxGeometry relative="1" as="geometry" />
        </mxCell>
        <mxCell id="xR_7PNV1ilyZsFhJpjoF-26" value="&lt;font face=&quot;Calibri&quot;&gt;KPD&lt;/font&gt;" style="rounded=1;whiteSpace=wrap;html=1;fontSize=16;fillColor=#dae8fc;strokeColor=#6c8ebf;" parent="1" vertex="1">
          <mxGeometry x="-98" y="-83.5" width="117" height="42" as="geometry" />
        </mxCell>
        <mxCell id="xR_7PNV1ilyZsFhJpjoF-28" value="&lt;font face=&quot;Calibri&quot;&gt;ICU&lt;/font&gt;" style="rounded=1;whiteSpace=wrap;html=1;fontSize=16;fillColor=#ffff88;strokeColor=#36393d;" parent="1" vertex="1">
          <mxGeometry x="333" y="-151" width="117" height="42" as="geometry" />
        </mxCell>
        <mxCell id="xR_7PNV1ilyZsFhJpjoF-35" value="" style="endArrow=classic;startArrow=classic;html=1;rounded=0;fontSize=12;startSize=8;endSize=8;curved=1;exitX=1;exitY=0.5;exitDx=0;exitDy=0;entryX=0;entryY=0.5;entryDx=0;entryDy=0;" parent="1" source="xR_7PNV1ilyZsFhJpjoF-19" target="xR_7PNV1ilyZsFhJpjoF-28" edge="1">
          <mxGeometry width="50" height="50" relative="1" as="geometry">
            <mxPoint x="266" y="-129.5" as="sourcePoint" />
            <mxPoint x="326" y="-132" as="targetPoint" />
          </mxGeometry>
        </mxCell>
        <mxCell id="xR_7PNV1ilyZsFhJpjoF-36" style="edgeStyle=none;curved=1;rounded=0;orthogonalLoop=1;jettySize=auto;html=1;exitX=0.5;exitY=0;exitDx=0;exitDy=0;fontSize=12;startSize=8;endSize=8;" parent="1" edge="1">
          <mxGeometry relative="1" as="geometry">
            <mxPoint x="-31.5" y="-291.5" as="sourcePoint" />
            <mxPoint x="-31.5" y="-291.5" as="targetPoint" />
          </mxGeometry>
        </mxCell>
        <mxCell id="8ipgU9KL6Nm_yaJBRG0r-7" value="&lt;font face=&quot;Calibri&quot;&gt;LCD&lt;/font&gt;" style="rounded=1;whiteSpace=wrap;html=1;fontSize=16;fillColor=#f8cecc;strokeColor=#b85450;" parent="1" vertex="1">
          <mxGeometry x="-98" y="-151" width="117" height="42" as="geometry" />
        </mxCell>
        <mxCell id="8ipgU9KL6Nm_yaJBRG0r-9" value="&lt;font face=&quot;Calibri&quot;&gt;DIO/TMR0&lt;/font&gt;" style="text;html=1;strokeColor=none;fillColor=none;align=center;verticalAlign=middle;whiteSpace=wrap;rounded=0;fontSize=16;" parent="1" vertex="1">
          <mxGeometry x="37.5" y="-156" width="60" height="30" as="geometry" />
        </mxCell>
        <mxCell id="8ipgU9KL6Nm_yaJBRG0r-11" value="&lt;span style=&quot;color: rgb(0, 0, 0); font-family: Calibri; font-size: 16px; font-style: normal; font-variant-ligatures: normal; font-variant-caps: normal; font-weight: 400; letter-spacing: normal; orphans: 2; text-align: center; text-indent: 0px; text-transform: none; widows: 2; word-spacing: 0px; -webkit-text-stroke-width: 0px; background-color: rgb(255, 255, 255); text-decoration-thickness: initial; text-decoration-style: initial; text-decoration-color: initial; float: none; display: inline !important;&quot;&gt;DIO/TMR0&lt;/span&gt;" style="text;whiteSpace=wrap;html=1;fontSize=16;" parent="1" vertex="1">
          <mxGeometry x="34" y="-90" width="67" height="31" as="geometry" />
        </mxCell>
        <mxCell id="8ipgU9KL6Nm_yaJBRG0r-12" value="&lt;font face=&quot;Calibri&quot;&gt;EXI/TMR1&lt;/font&gt;" style="text;html=1;strokeColor=none;fillColor=none;align=center;verticalAlign=middle;whiteSpace=wrap;rounded=0;fontSize=16;" parent="1" vertex="1">
          <mxGeometry x="255" y="-156" width="60" height="30" as="geometry" />
        </mxCell>
        <mxCell id="8ipgU9KL6Nm_yaJBRG0r-13" value="&lt;font face=&quot;Calibri&quot;&gt;DCM&lt;/font&gt;" style="rounded=1;whiteSpace=wrap;html=1;fontSize=16;fillColor=#f8cecc;strokeColor=#b85450;" parent="1" vertex="1">
          <mxGeometry x="333" y="-218.5" width="117" height="42" as="geometry" />
        </mxCell>
        <mxCell id="8ipgU9KL6Nm_yaJBRG0r-14" style="edgeStyle=none;curved=1;rounded=0;orthogonalLoop=1;jettySize=auto;html=1;fontSize=12;startSize=8;endSize=8;entryX=0;entryY=0.5;entryDx=0;entryDy=0;" parent="1" target="8ipgU9KL6Nm_yaJBRG0r-13" edge="1">
          <mxGeometry relative="1" as="geometry">
            <mxPoint x="236.5" y="-197.79" as="sourcePoint" />
            <mxPoint x="322" y="-199" as="targetPoint" />
          </mxGeometry>
        </mxCell>
        <mxCell id="8ipgU9KL6Nm_yaJBRG0r-15" value="&lt;font face=&quot;Calibri&quot;&gt;DIO/PWM&lt;/font&gt;" style="text;html=1;strokeColor=none;fillColor=none;align=center;verticalAlign=middle;whiteSpace=wrap;rounded=0;fontSize=16;" parent="1" vertex="1">
          <mxGeometry x="255" y="-222" width="60" height="30" as="geometry" />
        </mxCell>
        <mxCell id="8ipgU9KL6Nm_yaJBRG0r-16" value="&lt;font face=&quot;Calibri&quot;&gt;US&lt;/font&gt;" style="rounded=1;whiteSpace=wrap;html=1;fontSize=16;fillColor=#f8cecc;strokeColor=#b85450;" parent="1" vertex="1">
          <mxGeometry x="333" y="-83.5" width="117" height="42" as="geometry" />
        </mxCell>
        <mxCell id="8ipgU9KL6Nm_yaJBRG0r-17" style="edgeStyle=none;curved=1;rounded=0;orthogonalLoop=1;jettySize=auto;html=1;fontSize=12;startSize=8;endSize=8;entryX=0;entryY=0.512;entryDx=0;entryDy=0;entryPerimeter=0;" parent="1" target="8ipgU9KL6Nm_yaJBRG0r-16" edge="1">
          <mxGeometry relative="1" as="geometry">
            <mxPoint x="236.75" y="-62.89" as="sourcePoint" />
            <mxPoint x="330" y="-62" as="targetPoint" />
          </mxGeometry>
        </mxCell>
        <mxCell id="8ipgU9KL6Nm_yaJBRG0r-19" value="&lt;font face=&quot;Calibri&quot;&gt;DIO/TMR0&lt;/font&gt;" style="text;html=1;strokeColor=none;fillColor=none;align=center;verticalAlign=middle;whiteSpace=wrap;rounded=0;fontSize=16;" parent="1" vertex="1">
          <mxGeometry x="255" y="-89" width="60" height="30" as="geometry" />
        </mxCell>
        <mxCell id="8_xo1WM6Uad9gsGtbU2H-1" value="&lt;font face=&quot;Calibri&quot;&gt;ICU&lt;/font&gt;" style="text;html=1;strokeColor=none;fillColor=none;align=center;verticalAlign=middle;whiteSpace=wrap;rounded=0;fontSize=16;" vertex="1" parent="1">
          <mxGeometry x="255" y="-68" width="60" height="30" as="geometry" />
        </mxCell>
      </root>
    </mxGraphModel>
  </diagram>
</mxfile>
